<?xml version="1.0" encoding="UTF-8"?><svg id="Layer_2" xmlns="http://www.w3.org/2000/svg" viewBox="0 0 842.71 170.82"><defs><style>.cls-1{stroke:#e84d9b;}.cls-1,.cls-2{fill:none;stroke-linecap:round;stroke-linejoin:round;stroke-width:2px;}.cls-2{stroke:#d20563;}.cls-3{fill:#d20563;stroke-width:0px;}</style></defs><g id="OBJECTS"><path class="cls-2" d="M22.64,127.3C-.79,125.26-.43,73.88,2.23,56.82c1.75-11.22,4.86-18.49,25.73-19.97,69.71-4.97,70.99-.48,75.77-10.56,3.85-8.12-4.31-15.74-12.44-20.37,9.3-6.48,18.12-3.66,24.93,2.06"/><path class="cls-2" d="M61.05,133.25c-9.28-.32-30.64,1.9-37.22-4.81-7.89-8.05-6.27-49.4-3.61-66.45,1.75-11.22,4.86-18.49,25.73-19.97,69.71-4.97,70.99-.48,75.77-10.56,3.85-8.12-4.31-15.74-12.44-20.37,9.3-6.48,38.07-1.06,41.56,17.77.62,3.33.58,6.59.54,9.9,15.88,3.38,23.42-4.96,20.4,71.51-.6,15.17-4.02,20.52-21.16,21.88-24.35,1.93-48.31,2.31-72.88,1.06"/><path class="cls-2" d="M84.83,119.14c58.8-.99,74.18,6.67,72.87-23.77-.43-9.92,2.59-35.15-10.64-42.92-5.98-3.51-13.03-.9-52.45-1.1-14.05-.07-44.37-.69-53.11,8.11-8.36,8.42-6.79,35.23-5.25,47.36,1.79,14.11,9.72,15.72,23.14,12.67,5.15,12.12.17,22.59-8.65,27.23,15.05,4.16,30.22-13.74,34.09-27.57Z"/><path class="cls-2" d="M64.69,83.61c3.77,5.21,10.32-2.58,4.68-5.98-3.86-2.33-6.93,2.88-4.68,5.98Z"/><path class="cls-2" d="M126.93,84.39c6.56,2.03,5.6-9.39-.29-7.75-3.95,1.1-3.19,6.67.29,7.75Z"/><path class="cls-2" d="M83.85,85.42c2.71,12.5,26.19,11.93,27.13-1.46"/><path class="cls-1" d="M172.08,11.49c.88,2.36,2.36,4.49,4.27,6.14-2.36,1.25-3.63,3.86-4.74,6.29-.4-1.74-4.35-6.48-4.53-6.23,1.53-2.09,3.75-3.92,5.01-6.21Z"/><path class="cls-1" d="M36.98,143.59c.88,2.36,2.36,4.49,4.27,6.14-2.36,1.25-3.63,3.86-4.74,6.29-.4-1.74-4.35-6.48-4.53-6.23,1.53-2.09,3.75-3.92,5.01-6.21Z"/></g><g id="TEXTS"><path class="cls-3" d="M255.37,33.12l-6.84,99.9c-.12,1.8-.78,2.7-1.98,2.7h-9.9c-6.72,0-11.52-1.32-14.4-3.96-2.88-2.64-4.32-6.42-4.32-11.34,0-1.8.09-4.5.27-8.1.18-3.6.45-7.83.81-12.69.36-4.86.75-10.14,1.17-15.84.42-5.7.87-11.46,1.35-17.28.48-5.82.93-11.61,1.35-17.37.42-5.76.81-11.1,1.17-16.02h-28.8c-1.32,0-1.98-.84-1.98-2.52l.54-10.08c.12-1.56.39-3.09.81-4.59.42-1.5,1.11-2.85,2.07-4.05.96-1.2,2.19-2.16,3.69-2.88,1.5-.72,3.33-1.08,5.49-1.08h80.46c.72,0,1.38.18,1.98.54.6.36.9,1.02.9,1.98l-.72,10.62c-.24,3.6-1.23,6.51-2.97,8.73-1.74,2.22-5.31,3.33-10.71,3.33h-19.44Z"/><path class="cls-3" d="M344.29,79.74c-.72,0-1.53-.03-2.43-.09-.9-.06-1.77-.18-2.61-.36-.84-.18-1.56-.42-2.16-.72-.6-.3-.9-.69-.9-1.17,0-1.56.06-3,.18-4.32.12-1.32.18-2.7.18-4.14,0-2.64-.36-4.8-1.08-6.48-.72-1.68-2.16-2.52-4.32-2.52-3.36,0-6.15,2.19-8.37,6.57-2.22,4.38-3.63,10.95-4.23,19.71-.24,3.84-.57,8.19-.99,13.05-.42,4.86-.81,9.54-1.17,14.04s-.66,8.49-.9,11.97c-.24,3.48-.36,5.76-.36,6.84,0,1.2-.42,2.1-1.26,2.7-.84.6-1.74.9-2.7.9h-6.48c-3.72,0-6.75-.39-9.09-1.17-2.34-.78-4.2-1.89-5.58-3.33-1.38-1.44-2.34-3.21-2.88-5.31s-.81-4.53-.81-7.29c0-1.8.09-4.35.27-7.65.18-3.3.51-7.86.99-13.68.48-5.82,1.05-13.2,1.71-22.14.66-8.94,1.47-20.01,2.43-33.21.24-3.48,1.5-5.22,3.78-5.22h7.02c3.36,0,6.18.36,8.46,1.08,2.28.72,4.14,1.71,5.58,2.97,1.44,1.26,2.49,2.73,3.15,4.41.66,1.68,1.11,3.42,1.35,5.22,1.44-2.76,3.15-5.13,5.13-7.11,1.98-1.98,4.05-3.6,6.21-4.86,2.16-1.26,4.38-2.16,6.66-2.7,2.28-.54,4.38-.81,6.3-.81,2.28,0,4.59.42,6.93,1.26,2.34.84,4.47,2.1,6.39,3.78,1.92,1.68,3.45,3.84,4.59,6.48,1.14,2.64,1.71,5.76,1.71,9.36,0,3.24-.48,6.3-1.44,9.18-.96,2.88-2.34,5.43-4.14,7.65-1.8,2.22-3.99,3.96-6.57,5.22-2.58,1.26-5.43,1.89-8.55,1.89Z"/><path class="cls-3" d="M390.91,135.72c-3.72,0-6.75-.39-9.09-1.17-2.34-.78-4.2-1.89-5.58-3.33-1.38-1.44-2.34-3.21-2.88-5.31s-.81-4.53-.81-7.29c0-1.8.09-4.35.27-7.65.18-3.3.51-7.86.99-13.68.48-5.82,1.05-13.2,1.71-22.14.66-8.94,1.47-20.01,2.43-33.21.12-2.64.42-4.2.9-4.68.36-.36,1.32-.54,2.88-.54h7.02c3.72,0,6.75.36,9.09,1.08,2.34.72,4.2,1.8,5.58,3.24,1.38,1.44,2.34,3.18,2.88,5.22.54,2.04.81,4.32.81,6.84,0,1.8-.12,4.5-.36,8.1-.24,3.6-.57,8.49-.99,14.67-.42,6.18-.99,13.86-1.71,23.04-.72,9.18-1.62,20.25-2.7,33.21-.12,1.44-.42,2.4-.9,2.88s-1.5.72-3.06.72h-6.48ZM378.13,15.48c0-4.8,1.74-8.58,5.22-11.34,3.48-2.76,8.16-4.14,14.04-4.14,5.16,0,8.91,1.05,11.25,3.15,2.34,2.1,3.51,4.89,3.51,8.37,0,4.44-1.65,8.13-4.95,11.07-3.3,2.94-8.13,4.41-14.49,4.41-9.72,0-14.58-3.84-14.58-11.52Z"/><path class="cls-3" d="M443.83,137.34c-7.44,0-12.78-1.98-16.02-5.94-3.24-3.96-4.86-10.5-4.86-19.62,0-1.44.09-3.24.27-5.4.18-2.16.42-4.95.72-8.37.3-3.42.69-7.65,1.17-12.69.48-5.04.99-11.16,1.53-18.36.54-7.2,1.14-15.66,1.8-25.38.66-9.72,1.35-21,2.07-33.84.12-2.64.42-4.2.9-4.68.36-.36,1.32-.54,2.88-.54h7.02c3.6,0,6.6.42,9,1.26,2.4.84,4.32,1.98,5.76,3.42s2.46,3.09,3.06,4.95c.6,1.86.9,3.81.9,5.85,0,2.4-.15,5.85-.45,10.35-.3,4.5-.69,9.57-1.17,15.21-.48,5.64-.96,11.52-1.44,17.64-.48,6.12-.96,11.97-1.44,17.55-.48,5.58-.87,10.59-1.17,15.03-.3,4.44-.45,7.8-.45,10.08,0,3.12.57,5.34,1.71,6.66,1.14,1.32,2.37,2.25,3.69,2.79,1.32.54,2.55.9,3.69,1.08,1.14.18,1.71.57,1.71,1.17,0,2.64-.3,5.25-.9,7.83-.6,2.58-1.68,4.92-3.24,7.02-1.56,2.1-3.69,3.78-6.39,5.04-2.7,1.26-6.15,1.89-10.35,1.89Z"/><path class="cls-3" d="M495.85,135.72c-3.72,0-6.75-.39-9.09-1.17-2.34-.78-4.2-1.89-5.58-3.33-1.38-1.44-2.34-3.21-2.88-5.31s-.81-4.53-.81-7.29c0-1.8.09-4.35.27-7.65.18-3.3.51-7.86.99-13.68.48-5.82,1.05-13.2,1.71-22.14.66-8.94,1.47-20.01,2.43-33.21.12-2.64.42-4.2.9-4.68.36-.36,1.32-.54,2.88-.54h7.02c3.72,0,6.75.36,9.09,1.08,2.34.72,4.2,1.8,5.58,3.24,1.38,1.44,2.34,3.18,2.88,5.22.54,2.04.81,4.32.81,6.84,0,1.8-.12,4.5-.36,8.1-.24,3.6-.57,8.49-.99,14.67-.42,6.18-.99,13.86-1.71,23.04-.72,9.18-1.62,20.25-2.7,33.21-.12,1.44-.42,2.4-.9,2.88s-1.5.72-3.06.72h-6.48ZM483.07,15.48c0-4.8,1.74-8.58,5.22-11.34,3.48-2.76,8.16-4.14,14.04-4.14,5.16,0,8.91,1.05,11.25,3.15,2.34,2.1,3.51,4.89,3.51,8.37,0,4.44-1.65,8.13-4.95,11.07-3.3,2.94-8.13,4.41-14.49,4.41-9.72,0-14.58-3.84-14.58-11.52Z"/><path class="cls-3" d="M589.27,119.88c0-2.64.21-6.09.63-10.35.42-4.26.84-8.76,1.26-13.5.42-4.74.84-9.33,1.26-13.77.42-4.44.63-8.16.63-11.16s-.75-5.91-2.25-8.37c-1.5-2.46-4.41-3.69-8.73-3.69s-7.68,1.02-10.44,3.06c-2.76,2.04-5.07,5.76-6.93,11.16-1.86,5.4-3.39,12.84-4.59,22.32-1.2,9.48-2.34,21.66-3.42,36.54-.12,1.44-.42,2.4-.9,2.88-.48.48-1.5.72-3.06.72h-6.48c-3.72,0-6.75-.39-9.09-1.17-2.34-.78-4.2-1.89-5.58-3.33-1.38-1.44-2.34-3.21-2.88-5.31s-.81-4.53-.81-7.29c0-1.8.09-4.35.27-7.65.18-3.3.51-7.86.99-13.68.48-5.82,1.05-13.2,1.71-22.14.66-8.94,1.47-20.01,2.43-33.21.12-2.64.42-4.2.9-4.68.36-.36,1.32-.54,2.88-.54h7.02c3.6,0,6.57.42,8.91,1.26,2.34.84,4.23,1.95,5.67,3.33,1.44,1.38,2.46,3,3.06,4.86.6,1.86.96,3.75,1.08,5.67,3.72-6.36,7.98-10.77,12.78-13.23,4.8-2.46,10.8-3.69,18-3.69,5.04,0,9.42.54,13.14,1.62,3.72,1.08,6.81,2.91,9.27,5.49,2.46,2.58,4.29,5.94,5.49,10.08,1.2,4.14,1.8,9.27,1.8,15.39,0,1.92-.12,4.68-.36,8.28-.24,3.6-.54,7.53-.9,11.79-.36,4.26-.75,8.7-1.17,13.32-.42,4.62-.81,8.91-1.17,12.87-.36,3.96-.66,7.44-.9,10.44-.24,3-.36,4.98-.36,5.94,0,2.64-.3,4.23-.9,4.77-.6.54-1.92.81-3.96.81h-5.76c-3.84,0-6.96-.36-9.36-1.08-2.4-.72-4.26-1.74-5.58-3.06-1.32-1.32-2.25-2.97-2.79-4.95s-.81-4.23-.81-6.75Z"/><path class="cls-3" d="M698.17,114.48c-3,5.4-6.66,9.39-10.98,11.97-4.32,2.58-9.72,3.87-16.2,3.87-4.92,0-9.42-.78-13.5-2.34-4.08-1.56-7.56-4.02-10.44-7.38-2.88-3.36-5.13-7.59-6.75-12.69-1.62-5.1-2.43-11.19-2.43-18.27,0-5.76.6-11.85,1.8-18.27,1.2-6.42,3.39-12.33,6.57-17.73,3.18-5.4,7.53-9.87,13.05-13.41,5.52-3.54,12.6-5.31,21.24-5.31,3.6,0,6.69.39,9.27,1.17,2.58.78,4.8,1.83,6.66,3.15,1.86,1.32,3.36,2.88,4.5,4.68,1.14,1.8,2.01,3.72,2.61,5.76,0,.12.03-.33.09-1.35.06-1.02.15-2.19.27-3.51.12-1.32.21-2.61.27-3.87.06-1.26.09-2.07.09-2.43.12-1.2.9-1.8,2.34-1.8h8.28c6.24,0,10.77,1.29,13.59,3.87,2.82,2.58,4.23,7.47,4.23,14.67,0,.96-.06,3.15-.18,6.57-.12,3.42-.33,7.53-.63,12.33-.3,4.8-.69,10.11-1.17,15.93-.48,5.82-1.02,11.67-1.62,17.55-.6,5.88-1.26,11.52-1.98,16.92-.72,5.4-1.5,10.14-2.34,14.22-.84,4.08-2.28,8.04-4.32,11.88-2.04,3.84-4.92,7.26-8.64,10.26-3.72,3-8.49,5.4-14.31,7.2-5.82,1.8-12.93,2.7-21.33,2.7-6.36,0-11.91-.6-16.65-1.8-4.74-1.2-8.67-2.79-11.79-4.77-3.12-1.98-5.49-4.23-7.11-6.75-1.62-2.52-2.43-5.04-2.43-7.56,0-2.28.48-4.26,1.44-5.94.96-1.68,2.22-3.06,3.78-4.14,1.56-1.08,3.27-1.89,5.13-2.43,1.86-.54,3.63-.81,5.31-.81,2.04,0,3.54.6,4.5,1.8.96,1.2,2.04,2.55,3.24,4.05,1.2,1.5,2.88,2.85,5.04,4.05,2.16,1.2,5.52,1.8,10.08,1.8,7.92,0,13.47-2.91,16.65-8.73,3.18-5.82,4.77-14.19,4.77-25.11ZM683.05,106.38c4.32,0,7.71-1.02,10.17-3.06,2.46-2.04,4.35-4.5,5.67-7.38,1.32-2.88,2.16-5.88,2.52-9,.36-3.12.54-5.82.54-8.1,0-7.2-1.11-12.33-3.33-15.39-2.22-3.06-5.55-4.59-9.99-4.59s-7.92,1.2-10.44,3.6c-2.52,2.4-4.41,5.25-5.67,8.55-1.26,3.3-2.07,6.6-2.43,9.9-.36,3.3-.54,5.85-.54,7.65,0,6,1.02,10.47,3.06,13.41,2.04,2.94,5.52,4.41,10.44,4.41Z"/><path class="cls-3" d="M788.89,137.52c-8.28,0-15.15-1.17-20.61-3.51-5.46-2.34-9.81-5.55-13.05-9.63-3.24-4.08-5.52-8.85-6.84-14.31-1.32-5.46-1.98-11.31-1.98-17.55,0-7.2.87-14.25,2.61-21.15,1.74-6.9,4.71-13.05,8.91-18.45,4.2-5.4,9.75-9.75,16.65-13.05,6.9-3.3,15.51-4.95,25.83-4.95,15.12,0,25.95,3.69,32.49,11.07,6.54,7.38,9.81,17.73,9.81,31.05,0,3.72-.27,7.83-.81,12.33s-1.56,8.97-3.06,13.41c-1.5,4.44-3.54,8.76-6.12,12.96-2.58,4.2-5.85,7.92-9.81,11.16-3.96,3.24-8.73,5.82-14.31,7.74s-12.15,2.88-19.71,2.88ZM797.35,58.86c-4.56,0-8.19,1.17-10.89,3.51-2.7,2.34-4.74,5.16-6.12,8.46-1.38,3.3-2.28,6.78-2.7,10.44-.42,3.66-.63,6.75-.63,9.27,0,7.92,1.26,13.74,3.78,17.46,2.52,3.72,6.12,5.58,10.8,5.58,4.2,0,7.65-1.32,10.35-3.96,2.7-2.64,4.8-5.82,6.3-9.54,1.5-3.72,2.52-7.62,3.06-11.7.54-4.08.81-7.5.81-10.26,0-6-1.11-10.71-3.33-14.13-2.22-3.42-6.03-5.13-11.43-5.13Z"/></g></svg>