<?xml version="1.0" encoding="UTF-8"?><svg id="Layer_2" xmlns="http://www.w3.org/2000/svg" viewBox="0 0 957.78 251.18"><defs><style>.cls-1{stroke:#e84d9b;}.cls-1,.cls-2{fill:none;stroke-linecap:round;stroke-linejoin:round;stroke-width:2px;}.cls-3{fill:#d20563;font-family:PoetsenOne-Regular, PoetsenOne;font-size:180px;}.cls-2{stroke:#d20563;}</style></defs><g id="OBJECTS"><path class="cls-2" d="M22.64,145.48C-.79,143.43-.43,92.06,2.23,75c1.75-11.22,4.86-18.49,25.73-19.97,69.71-4.97,70.99-.48,75.77-10.56,3.85-8.12-4.31-15.74-12.44-20.37,9.3-6.48,18.12-3.66,24.93,2.06"/><path class="cls-2" d="M61.05,151.42c-9.28-.32-30.64,1.9-37.22-4.81-7.89-8.05-6.27-49.4-3.61-66.45,1.75-11.22,4.86-18.49,25.73-19.97,69.71-4.97,70.99-.48,75.77-10.56,3.85-8.12-4.31-15.74-12.44-20.37,9.3-6.48,38.07-1.06,41.56,17.77.62,3.33.58,6.59.54,9.9,15.88,3.38,23.42-4.96,20.4,71.51-.6,15.17-4.02,20.52-21.16,21.88-24.35,1.93-48.31,2.31-72.88,1.06"/><path class="cls-2" d="M84.83,137.31c58.8-.99,74.18,6.67,72.87-23.77-.43-9.92,2.59-35.15-10.64-42.92-5.98-3.51-13.03-.9-52.45-1.1-14.05-.07-44.37-.69-53.11,8.11-8.36,8.42-6.79,35.23-5.25,47.36,1.79,14.11,9.72,15.72,23.14,12.67,5.15,12.12.17,22.59-8.65,27.23,15.05,4.16,30.22-13.74,34.09-27.57Z"/><path class="cls-2" d="M64.69,101.79c3.77,5.21,10.32-2.58,4.68-5.98-3.86-2.33-6.93,2.88-4.68,5.98Z"/><path class="cls-2" d="M126.93,102.57c6.56,2.03,5.6-9.39-.29-7.75-3.95,1.1-3.19,6.67.29,7.75Z"/><path class="cls-2" d="M83.85,103.6c2.71,12.5,26.19,11.93,27.13-1.46"/><path class="cls-1" d="M172.08,29.67c.88,2.36,2.36,4.49,4.27,6.14-2.36,1.25-3.63,3.86-4.74,6.29-.4-1.74-4.35-6.48-4.53-6.23,1.53-2.09,3.75-3.92,5.01-6.21Z"/><path class="cls-1" d="M36.98,161.77c.88,2.36,2.36,4.49,4.27,6.14-2.36,1.25-3.63,3.86-4.74,6.29-.4-1.74-4.35-6.48-4.53-6.23,1.53-2.09,3.75-3.92,5.01-6.21Z"/></g><g id="TEXTS"><text class="cls-3" transform="translate(187.87 153.9)"><tspan x="0" y="0">Trilingo</tspan></text></g></svg>